<svg xmlns="http://www.w3.org/2000/svg" width="1200" height="700" viewBox="0 0 1200 700" role="img" aria-label="Placeholder diagram: alignment pipeline stages">
  <defs>
    <marker id="arr3" markerWidth="10" markerHeight="10" refX="8" refY="3" orient="auto">
      <path d="M0,0 L8,3 L0,6 Z" fill="#6B6453"/>
    </marker>
  </defs>
  <rect width="1200" height="700" fill="#F4F0E6"/>
  <rect x="20" y="20" width="1160" height="660" fill="none" stroke="#B0492B" stroke-width="2" stroke-dasharray="10 8" rx="4"/>
  <text x="600" y="70" text-anchor="middle" font-family="monospace" font-size="22" fill="#211E18" letter-spacing="0.5">Fig 2 — the alignment pipeline I wrote</text>
  <g font-family="monospace" font-size="15" fill="#211E18" text-anchor="middle">
    <rect x="60"  y="290" width="220" height="100" rx="6" fill="none" stroke="#211E18" stroke-width="1.5"/><text x="170" y="332">resample to a</text><text x="170" y="352">common grid</text>
    <rect x="350" y="290" width="220" height="100" rx="6" fill="none" stroke="#211E18" stroke-width="1.5"/><text x="460" y="332">max normalized</text><text x="460" y="352">cross-corr. along z</text>
    <rect x="640" y="290" width="220" height="100" rx="6" fill="none" stroke="#B0492B" stroke-width="1.5"/><text x="750" y="332">gate 1:</text><text x="750" y="352">overlap check</text>
    <rect x="930" y="290" width="210" height="100" rx="6" fill="none" stroke="#B0492B" stroke-width="1.5"/><text x="1035" y="332">gate 2:</text><text x="1035" y="352">anatomy check</text>
  </g>
  <g stroke="#6B6453" stroke-width="1.5" marker-end="url(#arr3)">
    <line x1="282" y1="340" x2="346" y2="340"/>
    <line x1="572" y1="340" x2="636" y2="340"/>
    <line x1="862" y1="340" x2="926" y2="340"/>
  </g>
  <text x="170" y="430" text-anchor="middle" font-family="monospace" font-size="13" fill="#6B6453">same voxel grid</text>
  <text x="460" y="430" text-anchor="middle" font-family="monospace" font-size="13" fill="#6B6453">find best z shift</text>
  <text x="750" y="430" text-anchor="middle" font-family="monospace" font-size="13" fill="#6B6453">drop bad pairs</text>
  <text x="1035" y="430" text-anchor="middle" font-family="monospace" font-size="13" fill="#6B6453">drop bad pairs</text>
  <text x="600" y="600" text-anchor="middle" font-family="monospace" font-size="14" fill="#6B6453">20 candidate pairs → 15 verified pairs after both gates</text>
  <text x="600" y="640" text-anchor="middle" font-family="monospace" font-size="18" fill="#B0492B">// TODO — replace with the real pipeline diagram</text>
</svg>
