<svg xmlns="http://www.w3.org/2000/svg" width="1200" height="700" viewBox="0 0 1200 700" role="img" aria-label="Placeholder diagram: BlindRun system architecture layers">
  <defs>
    <marker id="arr5" markerWidth="10" markerHeight="10" refX="8" refY="3" orient="auto">
      <path d="M0,0 L8,3 L0,6 Z" fill="#6B6453"/>
    </marker>
  </defs>
  <rect width="1200" height="700" fill="#F4F0E6"/>
  <rect x="20" y="20" width="1160" height="660" fill="none" stroke="#B0492B" stroke-width="2" stroke-dasharray="10 8" rx="4"/>
  <text x="600" y="70" text-anchor="middle" font-family="monospace" font-size="22" fill="#211E18" letter-spacing="0.5">Fig 2 — system architecture (backend scope)</text>
  <!-- client layer -->
  <g font-family="monospace" font-size="14" fill="#211E18" text-anchor="middle">
    <rect x="430" y="120" width="340" height="64" rx="6" fill="none" stroke="#211E18" stroke-width="1.5"/>
    <text x="600" y="158">mobile clients (teammate-built app)</text>
    <rect x="430" y="240" width="340" height="64" rx="6" fill="none" stroke="#211E18" stroke-width="1.5"/>
    <text x="600" y="278">API gateway · REST + WebSocket (real-time location)</text>
    <rect x="180" y="360" width="380" height="64" rx="6" fill="#ECE7DA" stroke="#B0492B" stroke-width="2"/>
    <text x="370" y="398">matching service (my work)</text>
    <rect x="640" y="360" width="380" height="64" rx="6" fill="none" stroke="#211E18" stroke-width="1.5"/>
    <text x="830" y="398">identity verification pipeline</text>
    <rect x="180" y="490" width="180" height="64" rx="6" fill="none" stroke="#211E18" stroke-width="1.5"/>
    <text x="270" y="528">Redis (rate limit · locks)</text>
    <rect x="420" y="490" width="180" height="64" rx="6" fill="none" stroke="#211E18" stroke-width="1.5"/>
    <text x="510" y="528">PostgreSQL</text>
    <rect x="660" y="490" width="180" height="64" rx="6" fill="none" stroke="#211E18" stroke-width="1.5"/>
    <text x="750" y="528">bounded thread pool</text>
  </g>
  <g stroke="#6B6453" stroke-width="1.2" marker-end="url(#arr5)">
    <line x1="600" y1="186" x2="600" y2="238"/>
    <line x1="520" y1="306" x2="400" y2="358"/>
    <line x1="680" y1="306" x2="800" y2="358"/>
    <line x1="320" y1="426" x2="280" y2="488"/>
    <line x1="420" y1="426" x2="480" y2="488"/>
    <line x1="500" y1="426" x2="720" y2="488"/>
  </g>
  <text x="600" y="640" text-anchor="middle" font-family="monospace" font-size="18" fill="#B0492B">// TODO — replace with the real architecture diagram</text>
</svg>
