<svg xmlns="http://www.w3.org/2000/svg" width="1200" height="750" viewBox="0 0 1200 750" role="img" aria-label="Placeholder diagram: Minecraft crafting dependency chain">
  <defs>
    <marker id="arr1" markerWidth="10" markerHeight="10" refX="8" refY="3" orient="auto">
      <path d="M0,0 L8,3 L0,6 Z" fill="#6B6453"/>
    </marker>
  </defs>
  <rect width="1200" height="750" fill="#F4F0E6"/>
  <rect x="20" y="20" width="1160" height="710" fill="none" stroke="#B0492B" stroke-width="2" stroke-dasharray="10 8" rx="4"/>
  <text x="600" y="80" text-anchor="middle" font-family="monospace" font-size="22" fill="#211E18" letter-spacing="0.5">Fig 1 — a crafting dependency chain</text>
  <g font-family="monospace" font-size="15" fill="#211E18" text-anchor="middle">
    <rect x="80"  y="330" width="170" height="70" rx="6" fill="none" stroke="#211E18" stroke-width="1.5"/><text x="165" y="372">oak log</text>
    <rect x="310" y="330" width="170" height="70" rx="6" fill="none" stroke="#211E18" stroke-width="1.5"/><text x="395" y="372">planks</text>
    <rect x="540" y="330" width="170" height="70" rx="6" fill="none" stroke="#211E18" stroke-width="1.5"/><text x="625" y="368">crafting</text><text x="625" y="386">table</text>
    <rect x="770" y="330" width="170" height="70" rx="6" fill="none" stroke="#211E18" stroke-width="1.5"/><text x="855" y="368">wooden</text><text x="855" y="386">pickaxe</text>
    <rect x="1000" y="330" width="120" height="70" rx="6" fill="none" stroke="#B0492B" stroke-width="1.5"/><text x="1060" y="372">iron?</text>
  </g>
  <g stroke="#6B6453" stroke-width="1.5" marker-end="url(#arr1)">
    <line x1="252" y1="365" x2="306" y2="365"/>
    <line x1="482" y1="365" x2="536" y2="365"/>
    <line x1="712" y1="365" x2="766" y2="365"/>
    <line x1="942" y1="365" x2="996" y2="365"/>
  </g>
  <text x="600" y="500" text-anchor="middle" font-family="monospace" font-size="16" fill="#6B6453">an LLM must gather prerequisites in order — one missing link blocks the whole plan</text>
  <text x="600" y="690" text-anchor="middle" font-family="monospace" font-size="18" fill="#B0492B">// TODO — replace with the real dependency-chain diagram</text>
</svg>
