<svg xmlns="http://www.w3.org/2000/svg" width="1200" height="700" viewBox="0 0 1200 700" role="img" aria-label="Placeholder chart: planning success baseline vs SAER">
  <rect width="1200" height="700" fill="#F4F0E6"/>
  <rect x="20" y="20" width="1160" height="660" fill="none" stroke="#B0492B" stroke-width="2" stroke-dasharray="10 8" rx="4"/>
  <text x="600" y="70" text-anchor="middle" font-family="monospace" font-size="22" fill="#211E18" letter-spacing="0.5">Fig 3 — planning success, baseline vs SAER</text>
  <line x1="160" y1="560" x2="1080" y2="560" stroke="#211E18" stroke-width="1.5"/>
  <line x1="160" y1="140" x2="160" y2="560" stroke="#211E18" stroke-width="1.5"/>
  <g font-family="monospace" font-size="13" fill="#6B6453" text-anchor="end">
    <text x="150" y="565">0</text><text x="150" y="455">33</text><text x="150" y="345">66</text><text x="150" y="235">100</text>
  </g>
  <g>
    <!-- group easy -->
    <rect x="250" y="300" width="50" height="260" fill="#DAD3C2"/>
    <rect x="305" y="200" width="50" height="360" fill="#B0492B"/>
    <!-- group medium -->
    <rect x="470" y="360" width="50" height="200" fill="#DAD3C2"/>
    <rect x="525" y="250" width="50" height="310" fill="#B0492B"/>
    <!-- group hard -->
    <rect x="690" y="500" width="50" height="60" fill="#DAD3C2"/>
    <rect x="745" y="270" width="50" height="290" fill="#B0492B"/>
    <!-- group overall -->
    <rect x="910" y="410" width="50" height="150" fill="#DAD3C2"/>
    <rect x="965" y="240" width="50" height="320" fill="#B0492B"/>
  </g>
  <g font-family="monospace" font-size="14" fill="#211E18" text-anchor="middle">
    <text x="300" y="588">easy</text><text x="520" y="588">medium</text><text x="740" y="588">hard</text><text x="960" y="588">overall</text>
  </g>
  <rect x="820" y="110" width="14" height="14" fill="#DAD3C2"/><text x="842" y="122" font-family="monospace" font-size="13" fill="#6B6453">baseline</text>
  <rect x="930" y="110" width="14" height="14" fill="#B0492B"/><text x="952" y="122" font-family="monospace" font-size="13" fill="#6B6453">SAER</text>
  <text x="600" y="650" text-anchor="middle" font-family="monospace" font-size="18" fill="#B0492B">// TODO — replace with the real results bar chart</text>
</svg>
