<svg xmlns="http://www.w3.org/2000/svg" width="1200" height="700" viewBox="0 0 1200 700" role="img" aria-label="Placeholder diagram: SAER four scoring dimensions">
  <rect width="1200" height="700" fill="#F4F0E6"/>
  <rect x="20" y="20" width="1160" height="660" fill="none" stroke="#B0492B" stroke-width="2" stroke-dasharray="10 8" rx="4"/>
  <text x="600" y="70" text-anchor="middle" font-family="monospace" font-size="22" fill="#211E18" letter-spacing="0.5">Fig 2 — SAER scores context along four dimensions</text>
  <g stroke="#6B6453" stroke-width="1.2">
    <line x1="360" y1="250" x2="560" y2="350"/>
    <line x1="840" y1="250" x2="640" y2="350"/>
    <line x1="360" y1="470" x2="560" y2="370"/>
    <line x1="840" y1="470" x2="640" y2="370"/>
  </g>
  <g font-family="monospace" font-size="15" fill="#211E18" text-anchor="middle">
    <circle cx="300" cy="240" r="74" fill="none" stroke="#211E18" stroke-width="1.5"/><text x="300" y="236">dim A</text><text x="300" y="256" font-size="12" fill="#6B6453">usefulness</text>
    <circle cx="900" cy="240" r="74" fill="none" stroke="#211E18" stroke-width="1.5"/><text x="900" y="236">dim B</text><text x="900" y="256" font-size="12" fill="#6B6453">novelty</text>
    <circle cx="300" cy="480" r="74" fill="none" stroke="#211E18" stroke-width="1.5"/><text x="300" y="476">dim C</text><text x="300" y="496" font-size="12" fill="#6B6453">specificity</text>
    <circle cx="900" cy="480" r="74" fill="none" stroke="#211E18" stroke-width="1.5"/><text x="900" y="476">dim D</text><text x="900" y="496" font-size="12" fill="#6B6453">recency</text>
  </g>
  <circle cx="600" cy="360" r="58" fill="#ECE7DA" stroke="#B0492B" stroke-width="2"/>
  <text x="600" y="356" text-anchor="middle" font-family="monospace" font-size="15" fill="#B0492B">SAER</text>
  <text x="600" y="376" text-anchor="middle" font-family="monospace" font-size="15" fill="#B0492B">score</text>
  <text x="600" y="620" text-anchor="middle" font-family="monospace" font-size="14" fill="#6B6453">dimension names + weights are illustrative</text>
  <text x="600" y="650" text-anchor="middle" font-family="monospace" font-size="18" fill="#B0492B">// TODO — replace with the real 4-dimension schematic</text>
</svg>
